<svg width="16" height="20" viewBox="0 0 16 20" fill="none" xmlns="http://www.w3.org/2000/svg">
<path d="M2.15951 2.41927V17.5482H13.9264V2.41927H2.15951ZM15.6074 17.5482C15.6074 18.4766 14.8548 19.2292 13.9264 19.2292H2.15951C1.23112 19.2292 0.478516 18.4766 0.478516 17.5482V2.41927C0.478516 1.49089 1.23112 0.738281 2.15951 0.738281H13.9264C14.8548 0.738281 15.6074 1.49089 15.6074 2.41927V17.5482Z" fill="white"/>
<path d="M8.46257 0.738281C8.92676 0.738281 9.30306 1.11458 9.30306 1.57878V8.30273C9.30306 8.63371 9.10841 8.93377 8.80648 9.06936C8.50461 9.20478 8.15172 9.15046 7.90442 8.93064L6.57145 7.74541L5.23848 8.93064C4.99118 9.15046 4.63829 9.20478 4.33643 9.06936C4.03449 8.93377 3.83984 8.63371 3.83984 8.30273V1.57878C3.83984 1.11458 4.21615 0.738281 4.68034 0.738281H8.46257ZM5.52083 6.43132L6.01331 5.99384L6.07487 5.94377C6.39114 5.71172 6.83111 5.72852 7.12959 5.99384L7.62207 6.43132V2.41927H5.52083V6.43132Z" fill="white"/>
<path d="M11.4043 13.3457C11.8685 13.3457 12.2448 13.722 12.2448 14.1862C12.2448 14.6504 11.8685 15.0267 11.4043 15.0267H4.68034C4.21615 15.0267 3.83984 14.6504 3.83984 14.1862C3.83984 13.722 4.21615 13.3457 4.68034 13.3457H11.4043ZM8.88281 10.8242C9.347 10.8242 9.72331 11.2005 9.72331 11.6647C9.72331 12.1289 9.347 12.5052 8.88281 12.5052H4.68034C4.21615 12.5052 3.83984 12.1289 3.83984 11.6647C3.83984 11.2005 4.21615 10.8242 4.68034 10.8242H8.88281Z" fill="white"/>
</svg>
