<svg width="13" height="10" viewBox="0 0 13 10" fill="none" xmlns="http://www.w3.org/2000/svg">
<path d="M11.4541 1.10938C11.715 1.10938 11.9444 1.21004 12.1309 1.39648C12.3189 1.58458 12.4179 1.81741 12.418 2.08203C12.418 2.34647 12.3178 2.57795 12.1299 2.76562L12.1309 2.7666L5.58301 9.33203C5.39656 9.51848 5.16719 9.62012 4.90625 9.62012C4.64551 9.62 4.41681 9.51837 4.23047 9.33203L1.16211 6.26367C0.972329 6.07389 0.875034 5.83834 0.882812 5.57129C0.89053 5.30946 0.993181 5.08011 1.17969 4.89355C1.36817 4.70507 1.60126 4.6058 1.86621 4.60645C2.13008 4.60716 2.36191 4.70628 2.5498 4.89355H2.55078L4.90625 7.2666L10.7773 1.39648C10.9638 1.21003 11.1932 1.10938 11.4541 1.10938Z" fill="#081C35" stroke="#081C35" stroke-width="0.5"/>
</svg>
