<svg width="13" height="10" viewBox="0 0 13 10" fill="none" xmlns="http://www.w3.org/2000/svg">
<path d="M11.4541 0.841797C11.715 0.841798 11.9444 0.942458 12.1309 1.12891C12.3189 1.317 12.4179 1.54983 12.418 1.81445C12.418 2.07889 12.3178 2.31037 12.1299 2.49805L12.1309 2.49902L5.58301 9.06445C5.39656 9.2509 5.16719 9.35254 4.90625 9.35254C4.64551 9.35242 4.41681 9.25079 4.23047 9.06445L1.16211 5.99609C0.972329 5.80631 0.875034 5.57076 0.882812 5.30371C0.89053 5.04188 0.993181 4.81253 1.17969 4.62598C1.36817 4.43749 1.60126 4.33822 1.86621 4.33887C2.13008 4.33958 2.36191 4.43871 2.5498 4.62598H2.55078L4.90625 6.99902L10.7773 1.12891C10.9638 0.942456 11.1932 0.841797 11.4541 0.841797Z" fill="#fff"/>
</svg>
