<svg width="37" height="45" viewBox="0 0 37 45" fill="none" xmlns="http://www.w3.org/2000/svg">
<path d="M34.1104 7.39521L28.0419 1.78522C26.942 0.740204 25.4937 0.171875 23.972 0.171875H6.94035C3.64026 0.171875 0.945312 2.86682 0.945312 6.16691V38.1768C0.945312 41.4768 3.64026 44.1719 6.94035 44.1719H30.022C33.3219 44.1719 36.017 41.4768 36.017 38.1768V11.7951C36.017 10.1269 35.3203 8.53187 34.1104 7.39521ZM12.4953 15.2418C17.4517 10.2854 17.2797 10.4329 17.4637 10.3102C17.7569 10.1085 18.1236 9.99852 18.472 9.99852H18.4903C18.967 9.99852 19.4253 10.2002 19.7737 10.5303C21.6844 12.4484 24.6591 15.4347 24.467 15.2418C25.1819 15.9568 25.1819 17.1119 24.467 17.8269C23.752 18.5419 22.597 18.5419 21.882 17.8269L20.3237 16.2685V22.7402C20.3237 23.7669 19.4986 24.5735 18.4903 24.5735C17.4637 24.5735 16.657 23.7669 16.657 22.7402V16.2685L15.0804 17.8452C14.3943 18.5313 13.2245 18.5745 12.4953 17.8452C11.7803 17.1302 11.7803 15.9568 12.4953 15.2418ZM25.5853 34.3452H11.377C10.3687 34.3452 9.54365 33.5202 9.54365 32.5119C9.54365 31.5035 10.3687 30.6786 11.377 30.6786H25.5853C26.5936 30.6786 27.4187 31.5035 27.4187 32.5119C27.4187 33.5202 26.5936 34.3452 25.5853 34.3452Z" fill="#465971"/>
</svg>
