<svg width="23" height="20" viewBox="0 0 23 20" fill="none" xmlns="http://www.w3.org/2000/svg">
<path d="M7.8004 4.60742V5.56725H1.19811V14.2057H5.49551V15.1655H0.718194C0.453145 15.1655 0.238281 14.9506 0.238281 14.6856V5.08733C0.238281 4.82229 0.453145 4.60742 0.718194 4.60742H7.8004Z" fill="white"/>
<path d="M8.45397 7.19141V11.9488H7.49414V7.19141H8.45397Z" fill="white"/>
<path d="M9.8076 11.1055V12.0653H9.74612C7.68103 12.0653 5.98319 13.6374 5.78407 15.6502H16.1765V16.61H5.2846C5.01955 16.61 4.80469 16.3951 4.80469 16.1301V16.0469C4.80469 13.3178 7.01703 11.1055 9.74612 11.1055H9.8076Z" fill="white"/>
<path d="M13.0673 11.1055C14.8327 11.1055 16.3813 12.0315 17.2546 13.422L16.4418 13.9325C15.7367 12.8098 14.4888 12.0653 13.0673 12.0653H13.0059V11.1055H13.0673Z" fill="white"/>
<path d="M10.286 10.1094V11.3726L11.4061 12.3902L12.5262 11.3726V10.1094H13.486V11.585C13.486 11.7203 13.4289 11.8493 13.3288 11.9402L11.7288 13.3938C11.5458 13.56 11.2664 13.56 11.0834 13.3938L9.48339 11.9402C9.38327 11.8493 9.32617 11.7203 9.32617 11.585V10.1094H10.286Z" fill="white"/>
<path d="M11.8601 7.96703C12.0279 7.76191 12.3303 7.73168 12.5354 7.8995C12.7405 8.06734 12.7708 8.36971 12.603 8.57485C12.32 8.92068 11.8883 9.14278 11.4051 9.14278C10.9243 9.14278 10.4944 8.92291 10.2113 8.57996C10.0426 8.37554 10.0716 8.07302 10.276 7.90432C10.4804 7.73561 10.783 7.76457 10.9517 7.96899C11.0602 8.10046 11.2227 8.18296 11.4051 8.18296C11.5882 8.18296 11.7516 8.09963 11.8601 7.96703Z" fill="white"/>
<path d="M12.5654 3.77344C13.431 3.77344 14.2367 4.19418 14.7325 4.89116C15.3737 5.01491 15.891 5.55716 15.9157 6.25221C15.9388 6.90284 15.5295 7.46154 14.9526 7.66344C14.862 9.54293 13.3095 11.039 11.4075 11.039C9.50561 11.039 7.95307 9.54298 7.86248 7.66344C7.28557 7.46153 6.87624 6.90283 6.89937 6.25221C6.92759 5.45882 7.59761 4.86449 8.36118 4.86449H8.40353C9.71201 4.86449 10.9963 4.51089 12.1203 3.8411C12.1946 3.79682 12.2795 3.77344 12.366 3.77344H12.5654ZM12.4959 4.73326C11.2512 5.44773 9.84029 5.82431 8.40353 5.82431H8.36118C8.08387 5.82431 7.86739 6.03941 7.8586 6.28629C7.84887 6.55981 8.0672 6.78413 8.33817 6.78414C8.60322 6.78414 8.81808 6.99901 8.81808 7.26405V7.48969C8.81808 8.91982 9.97745 10.0792 11.4075 10.0792C12.8377 10.0791 13.997 8.91978 13.997 7.48969V7.26405C13.997 6.99901 14.2118 6.78414 14.4769 6.78414C14.7478 6.78414 14.9662 6.55981 14.9565 6.28629C14.9477 6.03941 14.7312 5.82432 14.4539 5.82431C14.2824 5.82431 14.1238 5.73276 14.0381 5.58415C13.7346 5.05767 13.1731 4.73327 12.5654 4.73326H12.4959Z" fill="white"/>
<path d="M14.6453 4.15032C14.6453 3.27126 13.9327 2.55865 13.0536 2.55865C12.9173 2.55865 12.7856 2.57571 12.6602 2.60756C12.5022 2.64771 12.3346 2.60488 12.2152 2.49385C11.7842 2.09299 11.2077 1.8485 10.573 1.8485C9.2409 1.8485 8.161 2.9284 8.161 4.2605C8.161 4.61247 8.23607 4.94564 8.37062 5.24581L7.49477 5.63838C7.30594 5.21711 7.20117 4.75038 7.20117 4.2605C7.20117 2.3983 8.7108 0.888672 10.573 0.888672C11.369 0.888674 12.1013 1.16504 12.678 1.62639C12.8008 1.60824 12.9262 1.59883 13.0536 1.59883C14.4628 1.59883 15.6051 2.74117 15.6051 4.15032C15.6051 4.71735 15.4196 5.24251 15.1061 5.66641L14.3344 5.09562C14.5299 4.83133 14.6453 4.50499 14.6453 4.15032Z" fill="white"/>
<path d="M6.05632 6.52734C6.32136 6.52734 6.53623 6.74221 6.53623 7.00726C6.53623 7.2723 6.32136 7.48717 6.05632 7.48717H4.55804C4.29299 7.48717 4.07812 7.2723 4.07812 7.00726C4.07812 6.74221 4.29299 6.52734 4.55804 6.52734H6.05632Z" fill="white"/>
<path d="M6.05632 8.44727C6.32136 8.44727 6.53623 8.66213 6.53623 8.92718C6.53623 9.19223 6.32136 9.40709 6.05632 9.40709H4.55804C4.29299 9.40709 4.07812 9.19223 4.07812 8.92718C4.07812 8.66213 4.29299 8.44727 4.55804 8.44727H6.05632Z" fill="white"/>
<path d="M6.05632 10.3672C6.32136 10.3672 6.53623 10.5821 6.53623 10.8471C6.53623 11.1121 6.32136 11.327 6.05632 11.327H4.55804C4.29299 11.327 4.07812 11.1121 4.07812 10.8471C4.07812 10.5821 4.29299 10.3672 4.55804 10.3672H6.05632Z" fill="white"/>
<path d="M6.05632 12.2871C6.32136 12.2871 6.53623 12.502 6.53623 12.767C6.53623 13.0321 6.32136 13.2469 6.05632 13.2469H4.55804C4.29299 13.2469 4.07812 13.0321 4.07812 12.767C4.07812 12.502 4.29299 12.2871 4.55804 12.2871H6.05632Z" fill="white"/>
<path d="M21.6164 15.6162C21.6163 14.2343 20.4961 13.1141 19.1142 13.1141C17.7324 13.1141 16.6122 14.2343 16.6122 15.6162C16.6122 16.9981 17.7324 18.1183 19.1142 18.1183C20.4961 18.1183 21.6164 16.9981 21.6164 15.6162ZM22.5762 15.6162C22.5762 17.5282 21.0262 19.0781 19.1142 19.0781C17.2023 19.0781 15.6523 17.5282 15.6523 15.6162C15.6524 13.7042 17.2023 12.1543 19.1142 12.1543C21.0262 12.1543 22.5762 13.7042 22.5762 15.6162Z" fill="white"/>
<path d="M19.8848 14.5702C20.0722 14.3828 20.376 14.3828 20.5635 14.5702C20.7509 14.7577 20.7509 15.0615 20.5635 15.249L19.1483 16.6642C18.9608 16.8516 18.657 16.8516 18.4695 16.6642L17.666 15.8607C17.4785 15.6733 17.4785 15.3694 17.666 15.182C17.8534 14.9946 18.1572 14.9945 18.3447 15.1819L18.8089 15.6461L19.8848 14.5702Z" fill="white"/>
<path d="M3.11803 7.00726C3.11803 7.2723 2.90316 7.48717 2.63812 7.48717C2.37307 7.48717 2.1582 7.2723 2.1582 7.00726C2.1582 6.74221 2.37307 6.52734 2.63812 6.52734C2.90316 6.52734 3.11803 6.74221 3.11803 7.00726Z" fill="white"/>
<path d="M3.11803 8.92718C3.11803 9.19223 2.90316 9.40709 2.63812 9.40709C2.37307 9.40709 2.1582 9.19223 2.1582 8.92718C2.1582 8.66213 2.37307 8.44727 2.63812 8.44727C2.90316 8.44727 3.11803 8.66213 3.11803 8.92718Z" fill="white"/>
<path d="M3.11803 10.8471C3.11803 11.1121 2.90316 11.327 2.63812 11.327C2.37307 11.327 2.1582 11.1121 2.1582 10.8471C2.1582 10.5821 2.37307 10.3672 2.63812 10.3672C2.90316 10.3672 3.11803 10.5821 3.11803 10.8471Z" fill="white"/>
<path d="M3.11803 12.767C3.11803 13.0321 2.90316 13.2469 2.63812 13.2469C2.37307 13.2469 2.1582 13.0321 2.1582 12.767C2.1582 12.502 2.37307 12.2871 2.63812 12.2871C2.90316 12.2871 3.11803 12.502 3.11803 12.767Z" fill="white"/>
</svg>
