<svg width="275" height="35" viewBox="0 0 275 35" fill="none" xmlns="http://www.w3.org/2000/svg">
<path d="M270.736 0.568359H274.636V14.5684H270.736V7.56836H261.036V14.5684H257.156V0.568359H261.036V5.94836H269.096C269.996 5.94836 270.736 6.68836 270.736 7.56836V0.568359Z" fill="white"/>
<path d="M240.225 0.289062L249.525 14.5691H244.865L238.825 5.28906C236.765 8.54906 234.545 12.0291 232.925 14.5691H231.045C231.185 14.4091 238.725 2.54906 240.145 0.289062H240.225Z" fill="white"/>
<path d="M219.498 0.568359H223.398V14.5684H219.498V7.56836H209.798V14.5684H205.918V0.568359H209.798V5.94836H217.858C218.758 5.94836 219.498 6.68836 219.498 7.56836V0.568359Z" fill="white"/>
<path d="M183.308 6.34836H195.268C196.168 6.34836 196.908 7.08836 196.908 7.98836V12.9484C196.908 13.3884 196.728 13.8084 196.428 14.0884C196.128 14.3884 195.708 14.5684 195.268 14.5684H185.108H179.948V12.9484H193.008V7.96836H181.048C180.148 7.96836 179.428 7.24836 179.428 6.34836V2.20836C179.428 1.30836 180.148 0.568359 181.048 0.568359H196.108V2.20836H183.308V6.34836Z" fill="white"/>
<path d="M155.959 0.568359H159.859V14.5684H155.959V7.56836H146.259V14.5684H142.379V0.568359H146.259V5.94836H154.319C155.219 5.94836 155.959 6.68836 155.959 7.56836V0.568359Z" fill="white"/>
<path d="M119.769 6.34836H131.729C132.629 6.34836 133.369 7.08836 133.369 7.98836V12.9484C133.369 13.3884 133.189 13.8084 132.889 14.0884C132.589 14.3884 132.169 14.5684 131.729 14.5684H121.569H116.409V12.9484H129.469V7.96836H117.509C116.609 7.96836 115.889 7.24836 115.889 6.34836V2.20836C115.889 1.30836 116.609 0.568359 117.509 0.568359H132.569V2.20836H119.769V6.34836Z" fill="white"/>
<path d="M94.628 2.20836V12.9484H108.228C108.208 13.8484 107.488 14.5684 106.588 14.5684H92.368C91.468 14.5684 90.748 13.8484 90.748 12.9484V2.20836C90.748 1.30836 91.468 0.568359 92.368 0.568359H106.588C107.488 0.568359 108.208 1.30836 108.228 2.20836H94.628ZM95.788 5.94836H104.688C105.588 5.94836 106.308 6.68836 106.308 7.56836H95.788V5.94836Z" fill="white"/>
<path d="M65.7617 0.568359H83.2417V2.20836H76.4417V14.5684H72.5417V2.20836H65.7617V0.568359Z" fill="white"/>
<path d="M57.6866 14.5684H53.8066V0.568359H57.6866V14.5684Z" fill="white"/>
<path d="M39.8998 9.38836L45.2198 14.5684H40.4198L33.4398 7.76836H40.4198V2.20836H30.7398V14.5684H26.8398V0.568359H42.6798C43.5798 0.568359 44.3198 1.30836 44.3198 2.20836V7.74836C44.3198 8.64836 43.5798 9.38836 42.6798 9.38836H39.8998Z" fill="white"/>
<path d="M0.419922 0.568359H16.2599C17.1599 0.568359 17.8999 1.30836 17.8999 2.20836V8.32836C17.8999 9.22836 17.1599 9.96836 16.2599 9.96836H5.47992L6.87992 8.34836H13.9999V2.20836H4.31992V14.5684H0.419922V0.568359Z" fill="white"/>
<path d="M73.6155 34.5684V24.2224H75.0155V34.5684H73.6155ZM78.6857 34.5684H77.3417V27.0644H78.6577V28.1284C79.1337 27.2884 79.927 26.8684 81.0377 26.8684C81.8777 26.8684 82.5823 27.139 83.1517 27.6804C83.721 28.2217 84.0057 29.001 84.0057 30.0184V34.5684H82.6757V30.3964C82.6757 29.6777 82.4983 29.1177 82.1437 28.7164C81.7983 28.315 81.3363 28.1144 80.7577 28.1144C80.151 28.1144 79.6517 28.329 79.2597 28.7584C78.877 29.197 78.6857 29.7477 78.6857 30.4104V34.5684ZM88.6622 32.6784L90.9302 27.0644H92.4142L89.1102 34.5544H88.1722L84.8682 27.0644H86.3662L88.6622 32.6784ZM100.282 30.6764C100.282 30.7697 100.268 30.9984 100.24 31.3624H94.2624C94.3837 32.025 94.6637 32.5477 95.1024 32.9304C95.5411 33.313 96.1384 33.5044 96.8944 33.5044C97.3424 33.5044 97.8044 33.4297 98.2804 33.2804C98.7564 33.1217 99.1671 32.9164 99.5124 32.6644L100.086 33.6864C99.6944 33.985 99.2091 34.237 98.6304 34.4424C98.0517 34.6384 97.4637 34.7364 96.8664 34.7364C96.1851 34.7364 95.5784 34.6244 95.0464 34.4004C94.5237 34.1764 94.1084 33.873 93.8004 33.4904C93.4924 33.1077 93.2591 32.6877 93.1004 32.2304C92.9417 31.773 92.8624 31.2924 92.8624 30.7884C92.8624 29.6684 93.2124 28.735 93.9124 27.9884C94.6217 27.251 95.5364 26.8824 96.6564 26.8824C97.7204 26.8824 98.5884 27.223 99.2604 27.9044C99.9417 28.5857 100.282 29.5097 100.282 30.6764ZM94.2624 30.2004H98.8964C98.8591 29.5564 98.6304 29.043 98.2104 28.6604C97.7997 28.2684 97.2817 28.0724 96.6564 28.0724C96.0497 28.0724 95.5271 28.273 95.0884 28.6744C94.6497 29.0664 94.3744 29.575 94.2624 30.2004ZM103.969 34.7364C103.39 34.7364 102.849 34.5964 102.345 34.3164C101.85 34.0364 101.463 33.635 101.183 33.1124L102.149 32.3704C102.354 32.753 102.625 33.047 102.961 33.2524C103.306 33.4577 103.656 33.5604 104.011 33.5604C104.403 33.5604 104.72 33.4624 104.963 33.2664C105.215 33.061 105.341 32.8137 105.341 32.5244C105.341 32.123 105.112 31.8057 104.655 31.5724C104.534 31.507 104.221 31.367 103.717 31.1524C103.25 30.9564 102.942 30.8164 102.793 30.7324C102.028 30.3124 101.645 29.7057 101.645 28.9124C101.645 28.3057 101.869 27.8064 102.317 27.4144C102.756 27.013 103.348 26.8124 104.095 26.8124C104.58 26.8124 105.038 26.915 105.467 27.1204C105.896 27.3257 106.232 27.6197 106.475 28.0024L105.621 28.8144C105.21 28.2357 104.674 27.9464 104.011 27.9464C103.684 27.9464 103.423 28.035 103.227 28.2124C103.031 28.3804 102.933 28.595 102.933 28.8564C102.933 29.2484 103.143 29.5424 103.563 29.7384L104.389 30.1024C104.837 30.2797 105.173 30.4337 105.397 30.5644C106.246 30.9937 106.671 31.6237 106.671 32.4544C106.671 33.0984 106.419 33.6397 105.915 34.0784C105.402 34.517 104.753 34.7364 103.969 34.7364ZM112.554 33.0844L113.058 34.1204C112.517 34.5404 111.849 34.7504 111.056 34.7504C110.272 34.7504 109.675 34.5077 109.264 34.0224C108.863 33.537 108.662 32.8417 108.662 31.9364V28.2124H107.332V27.0644H108.676V24.4044H109.992V27.0644H112.652V28.2124H109.992V32.0344C109.992 33.0237 110.398 33.5184 111.21 33.5184C111.649 33.5184 112.097 33.3737 112.554 33.0844ZM122.799 26.8684C123.704 26.8684 124.432 27.1624 124.983 27.7504C125.524 28.3197 125.795 29.1037 125.795 30.1024V34.5684H124.451V30.3124C124.451 29.6124 124.287 29.071 123.961 28.6884C123.643 28.3057 123.205 28.1144 122.645 28.1144C122.057 28.1144 121.576 28.3197 121.203 28.7304C120.829 29.141 120.643 29.6777 120.643 30.3404V34.5684H119.313V30.3404C119.313 29.6404 119.149 29.0944 118.823 28.7024C118.496 28.3104 118.053 28.1144 117.493 28.1144C116.905 28.1144 116.419 28.3244 116.037 28.7444C115.663 29.155 115.477 29.6964 115.477 30.3684V34.5684H114.133V27.0644H115.449V28.1704C115.673 27.7504 115.981 27.4284 116.373 27.2044C116.774 26.971 117.222 26.859 117.717 26.8684C118.23 26.8684 118.701 26.9944 119.131 27.2464C119.56 27.489 119.873 27.8297 120.069 28.2684C120.321 27.839 120.689 27.4984 121.175 27.2464C121.669 26.9944 122.211 26.8684 122.799 26.8684ZM134.736 30.6764C134.736 30.7697 134.722 30.9984 134.694 31.3624H128.716C128.837 32.025 129.117 32.5477 129.556 32.9304C129.994 33.313 130.592 33.5044 131.348 33.5044C131.796 33.5044 132.258 33.4297 132.734 33.2804C133.21 33.1217 133.62 32.9164 133.966 32.6644L134.54 33.6864C134.148 33.985 133.662 34.237 133.084 34.4424C132.505 34.6384 131.917 34.7364 131.32 34.7364C130.638 34.7364 130.032 34.6244 129.5 34.4004C128.977 34.1764 128.562 33.873 128.254 33.4904C127.946 33.1077 127.712 32.6877 127.554 32.2304C127.395 31.773 127.316 31.2924 127.316 30.7884C127.316 29.6684 127.666 28.735 128.366 27.9884C129.075 27.251 129.99 26.8824 131.11 26.8824C132.174 26.8824 133.042 27.223 133.714 27.9044C134.395 28.5857 134.736 29.5097 134.736 30.6764ZM128.716 30.2004H133.35C133.312 29.5564 133.084 29.043 132.664 28.6604C132.253 28.2684 131.735 28.0724 131.11 28.0724C130.503 28.0724 129.98 28.273 129.542 28.6744C129.103 29.0664 128.828 29.575 128.716 30.2004ZM137.666 34.5684H136.322V27.0644H137.638V28.1284C138.114 27.2884 138.907 26.8684 140.018 26.8684C140.858 26.8684 141.563 27.139 142.132 27.6804C142.701 28.2217 142.986 29.001 142.986 30.0184V34.5684H141.656V30.3964C141.656 29.6777 141.479 29.1177 141.124 28.7164C140.779 28.315 140.317 28.1144 139.738 28.1144C139.131 28.1144 138.632 28.329 138.24 28.7584C137.857 29.197 137.666 29.7477 137.666 30.4104V34.5684ZM149.29 33.0844L149.794 34.1204C149.253 34.5404 148.586 34.7504 147.792 34.7504C147.008 34.7504 146.411 34.5077 146 34.0224C145.599 33.537 145.398 32.8417 145.398 31.9364V28.2124H144.068V27.0644H145.412V24.4044H146.728V27.0644H149.388V28.2124H146.728V32.0344C146.728 33.0237 147.134 33.5184 147.946 33.5184C148.385 33.5184 148.833 33.3737 149.29 33.0844ZM162.136 34.5684H160.61L159.56 31.8804H155.626L154.576 34.5684H153.05L157.236 24.2224H157.992L162.136 34.5684ZM159.084 30.5644L157.6 26.6584L156.102 30.5644H159.084ZM169.164 28.1564V23.9704H170.508V34.5684H169.164V33.5184C168.511 34.3397 167.643 34.7504 166.56 34.7504C165.468 34.7504 164.563 34.3724 163.844 33.6164C163.135 32.851 162.78 31.913 162.78 30.8024C162.78 29.701 163.135 28.777 163.844 28.0304C164.553 27.265 165.449 26.8824 166.532 26.8824C167.605 26.8824 168.483 27.307 169.164 28.1564ZM169.262 30.8024C169.262 30.0464 169.024 29.4117 168.548 28.8984C168.081 28.3757 167.465 28.1144 166.7 28.1144C165.935 28.1144 165.314 28.3757 164.838 28.8984C164.371 29.421 164.138 30.0557 164.138 30.8024C164.138 31.5677 164.371 32.2117 164.838 32.7344C165.314 33.257 165.935 33.5184 166.7 33.5184C167.465 33.5184 168.081 33.257 168.548 32.7344C169.024 32.221 169.262 31.577 169.262 30.8024ZM175.506 32.6784L177.774 27.0644H179.258L175.954 34.5544H175.016L171.712 27.0644H173.21L175.506 32.6784ZM181.169 26.0004C180.889 26.0004 180.655 25.9117 180.469 25.7344C180.282 25.5477 180.189 25.3144 180.189 25.0344C180.189 24.7637 180.282 24.5397 180.469 24.3624C180.655 24.185 180.889 24.0964 181.169 24.0964C181.43 24.0964 181.654 24.1897 181.841 24.3764C182.027 24.5537 182.121 24.773 182.121 25.0344C182.121 25.3144 182.027 25.5477 181.841 25.7344C181.654 25.9117 181.43 26.0004 181.169 26.0004ZM181.813 27.0644V34.5684H180.469V27.0644H181.813ZM186 34.7364C185.422 34.7364 184.88 34.5964 184.376 34.3164C183.882 34.0364 183.494 33.635 183.214 33.1124L184.18 32.3704C184.386 32.753 184.656 33.047 184.992 33.2524C185.338 33.4577 185.688 33.5604 186.042 33.5604C186.434 33.5604 186.752 33.4624 186.994 33.2664C187.246 33.061 187.372 32.8137 187.372 32.5244C187.372 32.123 187.144 31.8057 186.686 31.5724C186.565 31.507 186.252 31.367 185.748 31.1524C185.282 30.9564 184.974 30.8164 184.824 30.7324C184.059 30.3124 183.676 29.7057 183.676 28.9124C183.676 28.3057 183.9 27.8064 184.348 27.4144C184.787 27.013 185.38 26.8124 186.126 26.8124C186.612 26.8124 187.069 26.915 187.498 27.1204C187.928 27.3257 188.264 27.6197 188.506 28.0024L187.652 28.8144C187.242 28.2357 186.705 27.9464 186.042 27.9464C185.716 27.9464 185.454 28.035 185.258 28.2124C185.062 28.3804 184.964 28.595 184.964 28.8564C184.964 29.2484 185.174 29.5424 185.594 29.7384L186.42 30.1024C186.868 30.2797 187.204 30.4337 187.428 30.5644C188.278 30.9937 188.702 31.6237 188.702 32.4544C188.702 33.0984 188.45 33.6397 187.946 34.0784C187.433 34.517 186.784 34.7364 186 34.7364ZM193.744 34.7504C192.596 34.7504 191.648 34.3724 190.902 33.6164C190.164 32.851 189.796 31.913 189.796 30.8024C189.796 29.6917 190.164 28.763 190.902 28.0164C191.639 27.251 192.586 26.8684 193.744 26.8684C194.882 26.8684 195.82 27.251 196.558 28.0164C197.304 28.791 197.678 29.7197 197.678 30.8024C197.678 31.9037 197.304 32.8417 196.558 33.6164C195.811 34.3724 194.873 34.7504 193.744 34.7504ZM196.334 30.8024C196.334 30.065 196.082 29.435 195.578 28.9124C195.074 28.3804 194.462 28.1144 193.744 28.1144C193.025 28.1144 192.414 28.3804 191.91 28.9124C191.406 29.435 191.154 30.065 191.154 30.8024C191.154 31.549 191.406 32.1884 191.91 32.7204C192.414 33.2524 193.025 33.5184 193.744 33.5184C194.462 33.5184 195.074 33.2524 195.578 32.7204C196.082 32.1884 196.334 31.549 196.334 30.8024ZM200.625 34.5684H199.281V27.0644H200.555V28.1704C200.994 27.3024 201.712 26.8684 202.711 26.8684C202.982 26.8684 203.276 26.9057 203.593 26.9804L203.467 28.2824C203.196 28.1984 202.935 28.1564 202.683 28.1564C202.067 28.1564 201.568 28.3664 201.185 28.7864C200.812 29.2064 200.625 29.8084 200.625 30.5924V34.5684Z" fill="#C5D6EB"/>
</svg>
