<svg width="21" height="16" viewBox="0 0 21 16" fill="none" xmlns="http://www.w3.org/2000/svg">
<path d="M0.190269 15.2327C0.147087 15.3087 0.124585 15.3947 0.125006 15.4821C0.125427 15.5695 0.148758 15.6553 0.19267 15.7309C0.236583 15.8065 0.299544 15.8692 0.375274 15.9129C0.451004 15.9565 0.536856 15.9796 0.624269 15.9797H17.6563C17.7437 15.9796 17.8295 15.9565 17.9053 15.9129C17.981 15.8692 18.044 15.8065 18.0879 15.7309C18.1318 15.6553 18.1551 15.5695 18.1555 15.4821C18.156 15.3947 18.1335 15.3087 18.0903 15.2327L15.8203 11.2377C14.911 11.3391 13.9933 11.1438 13.2043 10.6807L15.0783 13.9807H3.20227L9.14027 3.52771L11.1303 7.02971C11.1343 6.07671 11.4543 5.19971 11.9903 4.49571L9.57527 0.243709C9.53166 0.16676 9.46842 0.102756 9.392 0.0582261C9.31558 0.0136964 9.22872 -0.00976562 9.14027 -0.00976562C9.05182 -0.00976562 8.96496 0.0136964 8.88854 0.0582261C8.81212 0.102756 8.74888 0.16676 8.70527 0.243709L0.190269 15.2327Z" fill="white"/>
<path fill-rule="evenodd" clip-rule="evenodd" d="M12.5449 5.47023C12.9571 4.72352 13.6492 4.17116 14.4687 3.93468C15.2882 3.69819 16.1681 3.79695 16.9149 4.20923C17.6616 4.62151 18.2139 5.31354 18.4504 6.13307C18.6869 6.95261 18.5881 7.83252 18.1759 8.57923L20.1309 10.5342L18.8309 11.8342L16.8769 9.87923C16.3836 10.1464 15.8287 10.2792 15.2679 10.2642C14.4285 10.2451 13.6301 9.89799 13.0437 9.29719C12.4573 8.69639 12.1296 7.88977 12.1309 7.05023M15.3469 8.42823C15.7123 8.42823 16.0628 8.28305 16.3213 8.02463C16.5797 7.7662 16.7249 7.4157 16.7249 7.05023C16.7249 6.68476 16.5797 6.33426 16.3213 6.07584C16.0628 5.81741 15.7123 5.67223 15.3469 5.67223C14.9814 5.67223 14.6309 5.81741 14.3725 6.07584C14.114 6.33426 13.9689 6.68476 13.9689 7.05023C13.9689 7.4157 14.114 7.7662 14.3725 8.02463C14.6309 8.28305 14.9814 8.42823 15.3469 8.42823Z" fill="white"/>
<path d="M12.1309 7.04875C12.1299 6.49514 12.2725 5.95074 12.5449 5.46875L12.1309 7.04875ZM8.38086 12.9788V11.4788H9.88086V12.9788H8.38086ZM9.13086 6.97875C8.93195 6.97875 8.74118 7.05777 8.60053 7.19842C8.45988 7.33907 8.38086 7.52984 8.38086 7.72875V10.2288C8.38086 10.4277 8.45988 10.6184 8.60053 10.7591C8.74118 10.8997 8.93195 10.9788 9.13086 10.9788C9.32977 10.9788 9.52054 10.8997 9.66119 10.7591C9.80184 10.6184 9.88086 10.4277 9.88086 10.2288V7.72875C9.88086 7.52984 9.80184 7.33907 9.66119 7.19842C9.52054 7.05777 9.32977 6.97875 9.13086 6.97875Z" fill="white"/>
</svg>
