<svg width="18" height="18" viewBox="0 0 18 18" fill="none" xmlns="http://www.w3.org/2000/svg">
<path d="M12.2746 11.1572H11.5184L11.2504 10.8988C12.2209 9.77331 12.7543 8.33633 12.7531 6.8502C12.7531 5.61974 12.3883 4.41692 11.7047 3.39384C11.021 2.37075 10.0494 1.57335 8.91262 1.10248C7.77583 0.631602 6.52494 0.5084 5.31813 0.748449C4.11131 0.988499 3.00279 1.58102 2.13272 2.45108C1.26266 3.32115 0.67014 4.42967 0.43009 5.63648C0.19004 6.8433 0.313242 8.09419 0.784117 9.23098C1.25499 10.3678 2.05239 11.3394 3.07548 12.023C4.09856 12.7066 5.30138 13.0715 6.53184 13.0715C8.0728 13.0715 9.48934 12.5068 10.5805 11.5688L10.8389 11.8368V12.5929L15.6245 17.369L17.0506 15.9429L12.2746 11.1572ZM6.53184 11.1572C4.14861 11.1572 2.22479 9.23343 2.22479 6.8502C2.22479 4.46697 4.14861 2.54315 6.53184 2.54315C8.91507 2.54315 10.8389 4.46697 10.8389 6.8502C10.8389 9.23343 8.91507 11.1572 6.53184 11.1572Z" fill="white"/>
</svg>
