<svg width="234" height="34" viewBox="0 0 234 34" fill="none" xmlns="http://www.w3.org/2000/svg">
<path d="M229.882 0.910156H233.169V12.7086H229.882V6.80938H221.707V12.7086H218.438V0.910156H221.707V5.44413H228.5C229.258 5.44413 229.882 6.06776 229.882 6.80938V0.910156Z" fill="white"/>
<path d="M204.17 0.675781L212.008 12.7102H208.08L202.99 4.88951C201.254 7.63686 199.383 10.5696 198.018 12.7102H196.434C196.552 12.5754 202.906 2.58039 204.103 0.675781H204.17Z" fill="white"/>
<path d="M186.7 0.910156H189.987V12.7086H186.7V6.80938H178.526V12.7086H175.256V0.910156H178.526V5.44413H185.318C186.077 5.44413 186.7 6.06776 186.7 6.80938V0.910156Z" fill="white"/>
<path d="M156.203 5.78123H166.283C167.041 5.78123 167.665 6.40486 167.665 7.16333V11.3434C167.665 11.7142 167.513 12.0681 167.26 12.3041C167.007 12.5569 166.653 12.7086 166.283 12.7086H157.72H153.372V11.3434H164.378V7.14648H154.299C153.54 7.14648 152.934 6.5397 152.934 5.78123V2.29226C152.934 1.53379 153.54 0.910156 154.299 0.910156H166.991V2.29226H156.203V5.78123Z" fill="white"/>
<path d="M133.153 0.910156H136.44V12.7086H133.153V6.80938H124.979V12.7086H121.709V0.910156H124.979V5.44413H131.771C132.53 5.44413 133.153 6.06776 133.153 6.80938V0.910156Z" fill="white"/>
<path d="M102.655 5.78123H112.734C113.492 5.78123 114.116 6.40486 114.116 7.16333V11.3434C114.116 11.7142 113.964 12.0681 113.711 12.3041C113.459 12.5569 113.105 12.7086 112.734 12.7086H104.172H99.823V11.3434H110.829V7.14648H100.75C99.9915 7.14648 99.3848 6.5397 99.3848 5.78123V2.29226C99.3848 1.53379 99.9915 0.910156 100.75 0.910156H113.442V2.29226H102.655V5.78123Z" fill="white"/>
<path d="M81.4671 2.29226V11.3434H92.9285C92.9116 12.1018 92.3048 12.7086 91.5464 12.7086H79.5625C78.804 12.7086 78.1973 12.1018 78.1973 11.3434V2.29226C78.1973 1.53379 78.804 0.910156 79.5625 0.910156H91.5464C92.3048 0.910156 92.9116 1.53379 92.9285 2.29226H81.4671ZM82.4447 5.44413H89.9451C90.7036 5.44413 91.3104 6.06776 91.3104 6.80938H82.4447V5.44413Z" fill="white"/>
<path d="M57.1406 0.910156H71.8718V2.29226H66.1412V12.7086H62.8544V2.29226H57.1406V0.910156Z" fill="white"/>
<path d="M50.3343 12.7086H47.0645V0.910156H50.3343V12.7086Z" fill="white"/>
<path d="M35.3461 8.34318L39.8295 12.7086H35.7843L29.902 6.97793H35.7843V2.29226H27.6266V12.7086H24.3398V0.910156H37.6889C38.4474 0.910156 39.071 1.53379 39.071 2.29226V6.96107C39.071 7.71954 38.4474 8.34318 37.6889 8.34318H35.3461Z" fill="white"/>
<path d="M2.07422 0.910156H15.4233C16.1818 0.910156 16.8054 1.53379 16.8054 2.29226V7.44986C16.8054 8.20834 16.1818 8.83197 15.4233 8.83197H6.33851L7.51836 7.46672H13.5187V2.29226H5.36093V12.7086H2.07422V0.910156Z" fill="white"/>
<path d="M1.72472 33.3242V23.2833H3.08345V33.3242H1.72472ZM6.64542 33.3242H5.34105V26.0415H6.61825V27.0741C7.08021 26.2589 7.85016 25.8512 8.92808 25.8512C9.74331 25.8512 10.4272 26.1139 10.9797 26.6393C11.5323 27.1647 11.8086 27.921 11.8086 28.9084V33.3242H10.5178V29.2752C10.5178 28.5777 10.3457 28.0343 10.0015 27.6448C9.66632 27.2553 9.21794 27.0605 8.65633 27.0605C8.06755 27.0605 7.58294 27.2688 7.2025 27.6855C6.83112 28.1113 6.64542 28.6457 6.64542 29.2888V33.3242ZM16.3278 31.4899L18.5289 26.0415H19.9692L16.7626 33.3106H15.8523L12.6457 26.0415H14.0995L16.3278 31.4899ZM27.6054 29.547C27.6054 29.6376 27.5918 29.8595 27.5647 30.2127H21.7629C21.8807 30.8559 22.1524 31.3631 22.5781 31.7345C23.0039 32.1059 23.5836 32.2916 24.3173 32.2916C24.7521 32.2916 25.2005 32.2191 25.6624 32.0742C26.1244 31.9202 26.523 31.7209 26.8581 31.4764L27.4152 32.4682C27.0348 32.7581 26.5637 33.0027 26.0021 33.2019C25.4405 33.3922 24.8699 33.4873 24.2901 33.4873C23.6289 33.4873 23.0401 33.3786 22.5238 33.1612C22.0165 32.9438 21.6134 32.6494 21.3145 32.278C21.0156 31.9066 20.7892 31.499 20.6352 31.0552C20.4812 30.6113 20.4042 30.1448 20.4042 29.6557C20.4042 28.5687 20.7439 27.6629 21.4232 26.9382C22.1116 26.2226 22.9993 25.8648 24.0863 25.8648C25.119 25.8648 25.9614 26.1955 26.6135 26.8567C27.2748 27.5179 27.6054 28.4147 27.6054 29.547ZM21.7629 29.085H26.2603C26.224 28.46 26.0021 27.9618 25.5945 27.5904C25.1959 27.21 24.6932 27.0197 24.0863 27.0197C23.4975 27.0197 22.9903 27.2145 22.5646 27.604C22.1388 27.9844 21.8716 28.4781 21.7629 29.085ZM31.1833 33.4873C30.6217 33.4873 30.0963 33.3514 29.6072 33.0796C29.1271 32.8079 28.7512 32.4184 28.4795 31.9111L29.417 31.191C29.6163 31.5624 29.8789 31.8477 30.205 32.047C30.5402 32.2463 30.8799 32.3459 31.2241 32.3459C31.6045 32.3459 31.9125 32.2508 32.148 32.0606C32.3926 31.8613 32.5149 31.6213 32.5149 31.3405C32.5149 30.951 32.2929 30.643 31.8491 30.4166C31.7313 30.3531 31.4279 30.2173 30.9387 30.0089C30.4858 29.8187 30.1869 29.6828 30.042 29.6013C29.2992 29.1937 28.9278 28.6049 28.9278 27.835C28.9278 27.2462 29.1452 26.7616 29.58 26.3811C30.0058 25.9916 30.5809 25.7969 31.3056 25.7969C31.7766 25.7969 32.2205 25.8965 32.6371 26.0958C33.0538 26.2951 33.3799 26.5804 33.6154 26.9518L32.7866 27.7399C32.388 27.1783 31.8672 26.8975 31.2241 26.8975C30.907 26.8975 30.6534 26.9835 30.4632 27.1556C30.273 27.3187 30.1779 27.527 30.1779 27.7806C30.1779 28.1611 30.3817 28.4464 30.7893 28.6366L31.5909 28.9899C32.0257 29.162 32.3518 29.3115 32.5692 29.4383C33.3935 29.8549 33.8056 30.4664 33.8056 31.2725C33.8056 31.8976 33.5611 32.4229 33.0719 32.8487C32.5737 33.2744 31.9442 33.4873 31.1833 33.4873ZM39.5153 31.884L40.0044 32.8894C39.479 33.297 38.8314 33.5009 38.0614 33.5009C37.3005 33.5009 36.7208 33.2653 36.3223 32.7943C35.9328 32.3233 35.738 31.6485 35.738 30.7698V27.1556H34.4472V26.0415H35.7516V23.4599H37.0288V26.0415H39.6104V27.1556H37.0288V30.8649C37.0288 31.8251 37.4228 32.3052 38.2109 32.3052C38.6366 32.3052 39.0714 32.1648 39.5153 31.884ZM49.4578 25.8512C50.3365 25.8512 51.043 26.1366 51.5774 26.7072C52.1028 27.2598 52.3655 28.0207 52.3655 28.9899V33.3242H51.0611V29.1937C51.0611 28.5143 50.9026 27.989 50.5856 27.6176C50.2776 27.2462 49.8518 27.0605 49.3084 27.0605C48.7377 27.0605 48.2712 27.2598 47.9089 27.6583C47.5465 28.0569 47.3654 28.5777 47.3654 29.2209V33.3242H46.0746V29.2209C46.0746 28.5415 45.9161 28.0116 45.599 27.6312C45.282 27.2507 44.8517 27.0605 44.3083 27.0605C43.7376 27.0605 43.2666 27.2643 42.8952 27.6719C42.5329 28.0705 42.3517 28.5959 42.3517 29.2481V33.3242H41.0473V26.0415H42.3245V27.1149C42.5419 26.7072 42.8408 26.3947 43.2213 26.1773C43.6108 25.9509 44.0456 25.8422 44.5257 25.8512C45.0238 25.8512 45.4813 25.9735 45.898 26.2181C46.3146 26.4536 46.6181 26.7842 46.8083 27.21C47.0529 26.7933 47.4107 26.4627 47.8817 26.2181C48.3618 25.9735 48.8872 25.8512 49.4578 25.8512ZM61.0427 29.547C61.0427 29.6376 61.0291 29.8595 61.002 30.2127H55.2002C55.318 30.8559 55.5897 31.3631 56.0155 31.7345C56.4412 32.1059 57.0209 32.2916 57.7546 32.2916C58.1894 32.2916 58.6378 32.2191 59.0998 32.0742C59.5617 31.9202 59.9603 31.7209 60.2954 31.4764L60.8525 32.4682C60.4721 32.7581 60.001 33.0027 59.4394 33.2019C58.8778 33.3922 58.3072 33.4873 57.7274 33.4873C57.0662 33.4873 56.4774 33.3786 55.9611 33.1612C55.4539 32.9438 55.0508 32.6494 54.7518 32.278C54.4529 31.9066 54.2265 31.499 54.0725 31.0552C53.9185 30.6113 53.8415 30.1448 53.8415 29.6557C53.8415 28.5687 54.1812 27.6629 54.8605 26.9382C55.549 26.2226 56.4367 25.8648 57.5236 25.8648C58.5563 25.8648 59.3987 26.1955 60.0509 26.8567C60.7121 27.5179 61.0427 28.4147 61.0427 29.547ZM55.2002 29.085H59.6976C59.6614 28.46 59.4394 27.9618 59.0318 27.5904C58.6333 27.21 58.1305 27.0197 57.5236 27.0197C56.9349 27.0197 56.4276 27.2145 56.0019 27.604C55.5761 27.9844 55.3089 28.4781 55.2002 29.085ZM63.8869 33.3242H62.5825V26.0415H63.8597V27.0741C64.3217 26.2589 65.0916 25.8512 66.1696 25.8512C66.9848 25.8512 67.6687 26.1139 68.2212 26.6393C68.7738 27.1647 69.0501 27.921 69.0501 28.9084V33.3242H67.7593V29.2752C67.7593 28.5777 67.5872 28.0343 67.243 27.6448C66.9078 27.2553 66.4594 27.0605 65.8978 27.0605C65.309 27.0605 64.8244 27.2688 64.444 27.6855C64.0726 28.1113 63.8869 28.6457 63.8869 29.2888V33.3242ZM75.1684 31.884L75.6576 32.8894C75.1322 33.297 74.4846 33.5009 73.7146 33.5009C72.9537 33.5009 72.374 33.2653 71.9755 32.7943C71.586 32.3233 71.3912 31.6485 71.3912 30.7698V27.1556H70.1004V26.0415H71.4048V23.4599H72.682V26.0415H75.2636V27.1556H72.682V30.8649C72.682 31.8251 73.076 32.3052 73.8641 32.3052C74.2898 32.3052 74.7246 32.1648 75.1684 31.884ZM87.6352 33.3242H86.1541L85.1351 30.7155H81.3171L80.2981 33.3242H78.817L82.8796 23.2833H83.6133L87.6352 33.3242ZM84.6731 29.4383L83.2329 25.6474L81.7791 29.4383H84.6731ZM94.4562 27.1013V23.0387H95.7605V33.3242H94.4562V32.3052C93.8221 33.1023 92.9797 33.5009 91.9289 33.5009C90.8691 33.5009 89.9905 33.134 89.293 32.4003C88.6046 31.6575 88.2604 30.7472 88.2604 29.6693C88.2604 28.6004 88.6046 27.7036 89.293 26.979C89.9814 26.2362 90.851 25.8648 91.9018 25.8648C92.9434 25.8648 93.7949 26.277 94.4562 27.1013ZM94.5513 29.6693C94.5513 28.9355 94.3203 28.3196 93.8583 27.8214C93.4054 27.3141 92.8076 27.0605 92.0648 27.0605C91.322 27.0605 90.7197 27.3141 90.2577 27.8214C89.8048 28.3286 89.5783 28.9446 89.5783 29.6693C89.5783 30.412 89.8048 31.037 90.2577 31.5443C90.7197 32.0515 91.322 32.3052 92.0648 32.3052C92.8076 32.3052 93.4054 32.0515 93.8583 31.5443C94.3203 31.0461 94.5513 30.4211 94.5513 29.6693ZM100.611 31.4899L102.812 26.0415H104.252L101.046 33.3106H100.136L96.9289 26.0415H98.3828L100.611 31.4899ZM106.107 25.0088C105.835 25.0088 105.609 24.9228 105.427 24.7507C105.246 24.5695 105.156 24.3431 105.156 24.0713C105.156 23.8086 105.246 23.5912 105.427 23.4191C105.609 23.247 105.835 23.161 106.107 23.161C106.36 23.161 106.578 23.2516 106.759 23.4327C106.94 23.6048 107.031 23.8177 107.031 24.0713C107.031 24.3431 106.94 24.5695 106.759 24.7507C106.578 24.9228 106.36 25.0088 106.107 25.0088ZM106.732 26.0415V33.3242H105.427V26.0415H106.732ZM110.796 33.4873C110.234 33.4873 109.709 33.3514 109.22 33.0796C108.74 32.8079 108.364 32.4184 108.092 31.9111L109.03 31.191C109.229 31.5624 109.492 31.8477 109.818 32.047C110.153 32.2463 110.493 32.3459 110.837 32.3459C111.217 32.3459 111.525 32.2508 111.761 32.0606C112.005 31.8613 112.128 31.6213 112.128 31.3405C112.128 30.951 111.906 30.643 111.462 30.4166C111.344 30.3531 111.041 30.2173 110.551 30.0089C110.098 29.8187 109.8 29.6828 109.655 29.6013C108.912 29.1937 108.54 28.6049 108.54 27.835C108.54 27.2462 108.758 26.7616 109.193 26.3811C109.618 25.9916 110.194 25.7969 110.918 25.7969C111.389 25.7969 111.833 25.8965 112.25 26.0958C112.666 26.2951 112.993 26.5804 113.228 26.9518L112.399 27.7399C112.001 27.1783 111.48 26.8975 110.837 26.8975C110.52 26.8975 110.266 26.9835 110.076 27.1556C109.886 27.3187 109.791 27.527 109.791 27.7806C109.791 28.1611 109.994 28.4464 110.402 28.6366L111.204 28.9899C111.638 29.162 111.964 29.3115 112.182 29.4383C113.006 29.8549 113.418 30.4664 113.418 31.2725C113.418 31.8976 113.174 32.4229 112.685 32.8487C112.186 33.2744 111.557 33.4873 110.796 33.4873ZM118.311 33.5009C117.197 33.5009 116.278 33.134 115.553 32.4003C114.837 31.6575 114.479 30.7472 114.479 29.6693C114.479 28.5913 114.837 27.69 115.553 26.9654C116.268 26.2226 117.188 25.8512 118.311 25.8512C119.416 25.8512 120.327 26.2226 121.042 26.9654C121.767 27.7172 122.129 28.6185 122.129 29.6693C122.129 30.7381 121.767 31.6485 121.042 32.4003C120.317 33.134 119.407 33.5009 118.311 33.5009ZM120.825 29.6693C120.825 28.9537 120.58 28.3422 120.091 27.835C119.602 27.3187 119.009 27.0605 118.311 27.0605C117.614 27.0605 117.02 27.3187 116.531 27.835C116.042 28.3422 115.797 28.9537 115.797 29.6693C115.797 30.3939 116.042 31.0144 116.531 31.5307C117.02 32.047 117.614 32.3052 118.311 32.3052C119.009 32.3052 119.602 32.047 120.091 31.5307C120.58 31.0144 120.825 30.3939 120.825 29.6693ZM124.99 33.3242H123.685V26.0415H124.922V27.1149C125.347 26.2724 126.045 25.8512 127.014 25.8512C127.277 25.8512 127.562 25.8875 127.87 25.9599L127.748 27.2236C127.485 27.142 127.232 27.1013 126.987 27.1013C126.389 27.1013 125.904 27.3051 125.533 27.7127C125.171 28.1203 124.99 28.7046 124.99 29.4654V33.3242Z" fill="#586677"/>
</svg>
